<?xml version="1.0" standalone="no"?>
<!DOCTYPE svg PUBLIC "-//W3C//DTD SVG 20010904//EN"
 "http://www.w3.org/TR/2001/REC-SVG-20010904/DTD/svg10.dtd">
<svg version="1.0" xmlns="http://www.w3.org/2000/svg"
 width="142.000000pt" height="142.000000pt" viewBox="0 0 142.000000 142.000000"
 preserveAspectRatio="xMidYMid meet">
<metadata>
Created by potrace 1.14, written by Peter Selinger 2001-2017
</metadata>
<g transform="translate(0.000000,142.000000) scale(0.100000,-0.100000)"
fill="#000000" stroke="none">
<path d="M681 1372 c-11 -21 -58 -120 -104 -218 -47 -98 -108 -228 -137 -289
-29 -60 -66 -139 -82 -175 -16 -36 -40 -85 -53 -110 -23 -45 -28 -68 -26 -102
1 -14 270 -347 328 -406 7 -7 19 -23 28 -34 22 -32 31 -14 10 19 -17 26 -123
162 -135 173 -32 29 -180 222 -185 241 -4 15 3 42 18 74 14 28 80 172 147 320
67 149 139 306 160 351 21 45 41 91 45 103 8 27 22 27 31 -1 4 -13 29 -69 55
-126 27 -56 49 -104 49 -106 0 -2 20 -46 44 -98 147 -316 225 -497 221 -516
-3 -19 -67 -101 -272 -350 -35 -42 -63 -83 -63 -92 1 -17 39 24 165 176 22 26
73 86 114 133 94 110 105 128 103 160 -3 34 -413 903 -429 908 -7 3 -21 -13
-32 -35z"/>
<path d="M695 1249 c-4 -11 -28 -67 -55 -122 -63 -135 -100 -217 -100 -221 0
-2 -20 -46 -44 -97 -63 -136 -104 -225 -128 -280 l-21 -49 26 -38 c15 -20 39
-51 54 -68 15 -16 46 -52 68 -80 22 -27 48 -58 57 -69 9 -11 24 -29 33 -40 9
-12 14 -14 11 -5 -2 8 -13 39 -22 68 l-18 54 73 294 c41 162 77 294 81 294 3
0 40 -133 80 -296 l74 -296 -21 -61 c-12 -34 -21 -63 -19 -64 3 -4 236 285
242 301 3 7 -9 44 -27 82 -67 146 -292 641 -307 677 -19 42 -28 46 -37 16z"/>
</g>
</svg>
